<svg width="134" height="30" viewBox="0 0 134 30" fill="none" xmlns="http://www.w3.org/2000/svg">
<path d="M20.0573 24.3843C20.0573 27.3121 17.6839 29.6854 14.7562 29.6854C11.8285 29.6854 9.45508 27.3121 9.45508 24.3843V5.61458C9.45508 2.68686 11.8285 0.313476 14.7562 0.313477C17.6839 0.313477 20.0573 2.68686 20.0573 5.61458V24.3843Z" fill="#2E37A4"/>
<path d="M14.8871 9.76953C17.7759 9.76953 20.1178 12.1114 20.1178 15.0002C20.1178 17.8889 17.7759 20.2308 14.8872 20.2308H5.23063C2.34183 20.2308 -1.263e-07 17.8889 0 15.0002C1.262e-07 12.1114 2.34183 9.76953 5.23062 9.76953H14.8871Z" fill="#2E37A4"/>
<path d="M24.141 9.76953C27.0298 9.76953 29.3717 12.1114 29.3717 15.0002C29.3717 17.8889 27.0298 20.2308 24.141 20.2308H14.6857C11.7969 20.2308 9.45508 17.8889 9.45508 15.0002C9.45508 12.1114 11.7969 9.76953 14.6857 9.76953H24.141Z" fill="#00D3C7"/>
<path d="M20.1175 9.76953V20.2308H14.6857C11.7969 20.2308 9.45508 17.8889 9.45508 15.0002C9.45508 12.1114 11.7969 9.76953 14.6857 9.76953H20.1175Z" fill="white"/>
<path d="M122.043 25.4997C121.445 25.4997 120.84 25.4024 120.229 25.2077C119.631 25.027 119.144 24.7837 118.769 24.4779L120.145 21.7044C120.382 21.9129 120.653 22.0728 120.959 22.184C121.278 22.3091 121.591 22.3717 121.897 22.3717C122.328 22.3717 122.668 22.2743 122.919 22.0797C123.169 21.8851 123.384 21.5792 123.565 21.1622L124.087 19.8484L124.399 19.4522L128.236 9.96387H132.011L127.131 21.7252C126.742 22.6984 126.29 23.456 125.776 23.9982C125.275 24.5543 124.712 24.9436 124.087 25.166C123.475 25.3885 122.794 25.4997 122.043 25.4997ZM123.586 21.7461L118.602 9.96387H122.668L126.339 19.0977L123.586 21.7461Z" fill="white"/>
<path d="M111.887 21.2674V10.0899C111.887 8.72751 112.29 7.64313 113.096 6.8368C113.917 6.01656 115.084 5.60645 116.6 5.60645C117.086 5.60645 117.566 5.6551 118.039 5.75242C118.511 5.84974 118.908 5.99571 119.227 6.19034L118.247 8.9847C118.08 8.88739 117.893 8.81092 117.684 8.75531C117.476 8.6858 117.267 8.65105 117.059 8.65105C116.642 8.65105 116.315 8.77617 116.078 9.02641C115.856 9.26275 115.745 9.63116 115.745 10.1316V10.9449L115.849 12.5923V21.2674H111.887ZM110.24 13.3431V10.3819H118.435V13.3431H110.24Z" fill="white"/>
<path d="M104.891 21.2662V9.9636H108.853V21.2662H104.891ZM106.872 8.71239C106.149 8.71239 105.565 8.51081 105.12 8.10764C104.676 7.70448 104.453 7.204 104.453 6.6062C104.453 6.0084 104.676 5.50792 105.12 5.10475C105.565 4.70158 106.149 4.5 106.872 4.5C107.595 4.5 108.179 4.69463 108.624 5.0839C109.069 5.45926 109.291 5.94584 109.291 6.54364C109.291 7.16924 109.069 7.69058 108.624 8.10764C108.193 8.51081 107.609 8.71239 106.872 8.71239Z" fill="white"/>
<path d="M98.3542 21.2662V5.79297H102.316V21.2662H98.3542Z" fill="white"/>
<path d="M90.9655 21.4543C90.0063 21.4543 89.186 21.2458 88.5048 20.8287C87.8236 20.3977 87.3023 19.7582 86.9408 18.9102C86.5933 18.0482 86.4195 16.9499 86.4195 15.6153C86.4195 14.2668 86.5863 13.1685 86.92 12.3205C87.2536 11.4585 87.7541 10.819 88.4214 10.402C89.1026 9.9849 89.9507 9.77637 90.9655 9.77637C91.9943 9.77637 92.9258 10.0197 93.7599 10.5062C94.608 10.9789 95.2753 11.6532 95.7618 12.529C96.2623 13.391 96.5126 14.4197 96.5126 15.6153C96.5126 16.8109 96.2623 17.8466 95.7618 18.7225C95.2753 19.5983 94.608 20.2726 93.7599 20.7453C92.9258 21.218 91.9943 21.4543 90.9655 21.4543ZM83.8545 25.3122V9.96405H87.629V11.8826L87.6081 15.6153L87.8167 19.3689V25.3122H83.8545ZM90.1314 18.3054C90.5763 18.3054 90.9725 18.2012 91.3201 17.9926C91.6815 17.7841 91.9665 17.4782 92.175 17.0751C92.3975 16.6719 92.5087 16.1853 92.5087 15.6153C92.5087 15.0453 92.3975 14.5588 92.175 14.1556C91.9665 13.7524 91.6815 13.4466 91.3201 13.238C90.9725 13.0295 90.5763 12.9252 90.1314 12.9252C89.6865 12.9252 89.2834 13.0295 88.9219 13.238C88.5743 13.4466 88.2893 13.7524 88.0669 14.1556C87.8584 14.5588 87.7541 15.0453 87.7541 15.6153C87.7541 16.1853 87.8584 16.6719 88.0669 17.0751C88.2893 17.4782 88.5743 17.7841 88.9219 17.9926C89.2834 18.2012 89.6865 18.3054 90.1314 18.3054Z" fill="white"/>
<path d="M76.7868 9.77637C77.6626 9.77637 78.4412 9.9571 79.1224 10.3186C79.8175 10.6661 80.3597 11.2083 80.749 11.9451C81.1521 12.6819 81.3537 13.6343 81.3537 14.802V21.2666H77.3915V15.4485C77.3915 14.6422 77.2386 14.0583 76.9328 13.6968C76.6269 13.3215 76.2098 13.1338 75.6816 13.1338C75.3062 13.1338 74.9656 13.2241 74.6597 13.4049C74.3539 13.5856 74.1175 13.8636 73.9507 14.239C73.7839 14.6005 73.7005 15.0731 73.7005 15.657V21.2666H69.7383V15.4485C69.7383 14.6422 69.5854 14.0583 69.2795 13.6968C68.9876 13.3215 68.5705 13.1338 68.0283 13.1338C67.639 13.1338 67.2915 13.2241 66.9856 13.4049C66.6937 13.5856 66.4574 13.8636 66.2766 14.239C66.1098 14.6005 66.0264 15.0731 66.0264 15.657V21.2666H62.0642V9.96405H65.8387V13.1129L65.088 12.2162C65.505 11.4099 66.075 10.8051 66.798 10.402C67.5209 9.9849 68.3272 9.77637 69.217 9.77637C70.2318 9.77637 71.1216 10.0405 71.8862 10.5688C72.6647 11.0832 73.1861 11.8895 73.4502 12.9878L72.1573 12.7167C72.5605 11.7991 73.1652 11.0832 73.9716 10.5688C74.7918 10.0405 75.7302 9.77637 76.7868 9.77637Z" fill="white"/>
<path d="M51.0717 25.4997C50.4739 25.4997 49.8691 25.4024 49.2574 25.2077C48.6596 25.027 48.173 24.7837 47.7977 24.4779L49.174 21.7044C49.4104 21.9129 49.6815 22.0728 49.9873 22.184C50.3071 22.3091 50.6199 22.3717 50.9257 22.3717C51.3567 22.3717 51.6973 22.2743 51.9475 22.0797C52.1978 21.8851 52.4133 21.5792 52.594 21.1622L53.1153 19.8484L53.4281 19.4522L57.2652 9.96387H61.0397L56.1599 21.7252C55.7707 22.6984 55.3189 23.456 54.8045 23.9982C54.304 24.5543 53.7409 24.9436 53.1153 25.166C52.5036 25.3885 51.8224 25.4997 51.0717 25.4997ZM52.6148 21.7461L47.6309 9.96387H51.6973L55.3675 19.0977L52.6148 21.7461Z" fill="white"/>
<path d="M41.1518 21.5592C39.9562 21.5592 38.8023 21.4133 37.6901 21.1213C36.5918 20.8155 35.6951 20.4262 35 19.9535L36.3555 16.9089C37.0089 17.326 37.7596 17.6735 38.6077 17.9516C39.4696 18.2157 40.3246 18.3478 41.1726 18.3478C41.7426 18.3478 42.2014 18.2991 42.549 18.2018C42.8965 18.0906 43.1468 17.9516 43.2997 17.7848C43.4665 17.604 43.5499 17.3955 43.5499 17.1592C43.5499 16.8255 43.397 16.5614 43.0912 16.3667C42.7853 16.1721 42.3891 16.0122 41.9025 15.8871C41.4159 15.762 40.8737 15.6369 40.2759 15.5117C39.692 15.3866 39.1012 15.2267 38.5034 15.0321C37.9195 14.8375 37.3843 14.5872 36.8977 14.2814C36.4111 13.9616 36.0149 13.5515 35.709 13.051C35.4032 12.5366 35.2502 11.8902 35.2502 11.1117C35.2502 10.2358 35.4866 9.44339 35.9593 8.73437C36.4458 8.02535 37.1688 7.45536 38.128 7.02439C39.0873 6.59342 40.2829 6.37793 41.7148 6.37793C42.6741 6.37793 43.6125 6.48915 44.5301 6.71159C45.4615 6.92012 46.2887 7.23292 47.0116 7.64999L45.7396 10.7154C45.0444 10.3401 44.3563 10.062 43.6751 9.88131C42.9938 9.68668 42.3335 9.58936 41.694 9.58936C41.124 9.58936 40.6652 9.65192 40.3176 9.77704C39.9701 9.88826 39.7198 10.0412 39.5669 10.2358C39.414 10.4304 39.3375 10.6529 39.3375 10.9031C39.3375 11.2229 39.4835 11.4801 39.7755 11.6747C40.0813 11.8554 40.4775 12.0084 40.9641 12.1335C41.4646 12.2447 42.0068 12.3629 42.5907 12.488C43.1885 12.6131 43.7793 12.773 44.3632 12.9676C44.961 13.1483 45.5032 13.3986 45.9898 13.7183C46.4764 14.0242 46.8657 14.4343 47.1576 14.9487C47.4635 15.4492 47.6164 16.0817 47.6164 16.8464C47.6164 17.6944 47.3731 18.4799 46.8865 19.2028C46.4138 19.9118 45.6979 20.4818 44.7386 20.9128C43.7932 21.3437 42.5976 21.5592 41.1518 21.5592Z" fill="white"/>
</svg>
